<svg width="32" height="32" viewBox="0 0 32 32" fill="none" xmlns="http://www.w3.org/2000/svg">
<path opacity="0.99" d="M21.6522 4.86652H10.3454C7.0521 4.86652 4.38544 7.54652 4.38544 10.8265V23.3732C4.38544 26.6532 7.06544 29.3332 10.3454 29.3332H21.6388C24.9322 29.3332 27.5988 26.6532 27.5988 23.3732V10.8265C27.6122 7.53318 24.9322 4.86652 21.6522 4.86652Z" fill="#FBEAB9"/>
<path d="M19.1331 2.66669H12.8664C11.4797 2.66669 10.3464 3.78669 10.3464 5.17335V6.42669C10.3464 7.81335 11.4664 8.93335 12.853 8.93335H19.1331C20.5197 8.93335 21.6397 7.81335 21.6397 6.42669V5.17335C21.6531 3.78669 20.5197 2.66669 19.1331 2.66669Z" fill="#F3BB1C"/>
<path d="M20 17.2669H10.6667C10.12 17.2669 9.66669 16.8136 9.66669 16.2669C9.66669 15.7202 10.12 15.2669 10.6667 15.2669H20C20.5467 15.2669 21 15.7202 21 16.2669C21 16.8136 20.5467 17.2669 20 17.2669Z" fill="#F3BB1C"/>
<path d="M16.5067 22.6003H10.6667C10.12 22.6003 9.66669 22.1469 9.66669 21.6003C9.66669 21.0536 10.12 20.6003 10.6667 20.6003H16.5067C17.0534 20.6003 17.5067 21.0536 17.5067 21.6003C17.5067 22.1469 17.0534 22.6003 16.5067 22.6003Z" fill="#F3BB1C"/>
</svg>
