<svg width="32" height="32" viewBox="0 0 32 32" fill="none" xmlns="http://www.w3.org/2000/svg">
<path opacity="0.4" d="M12 9.6V22.3867C12 26.6667 14.6667 29.3333 18.9333 29.3333H22.3867C26.6533 29.3333 29.32 26.6667 29.32 22.4V9.6C29.3333 5.33333 26.6667 2.66666 22.4 2.66666H18.9333C14.6667 2.66666 12 5.33333 12 9.6Z" fill="#F3BB1C"/>
<path d="M7.42593 10.8267L2.95927 15.2933C2.5726 15.68 2.5726 16.32 2.95927 16.7067L7.42593 21.1733C7.8126 21.56 8.4526 21.56 8.83927 21.1733C9.22593 20.7867 9.22593 20.1467 8.83927 19.76L6.07927 17H20.3327C20.8793 17 21.3327 16.5467 21.3327 16C21.3327 15.4533 20.8793 15 20.3327 15H6.07927L8.83927 12.24C9.03927 12.04 9.1326 11.7867 9.1326 11.5334C9.1326 11.28 9.03927 11.0134 8.83927 10.8267C8.4526 10.4267 7.82593 10.4267 7.42593 10.8267Z" fill="#DDAA19"/>
</svg>
