<svg width="179" height="158" viewBox="0 0 179 158" fill="none" xmlns="http://www.w3.org/2000/svg">
<g clip-path="url(#clip0_119_7213)">
<path d="M138.641 101.218C138.489 100.956 138.396 100.664 138.37 100.363C138.343 100.061 138.383 99.7576 138.486 99.4733C138.59 99.1889 138.754 98.9307 138.968 98.7168C139.182 98.5028 139.441 98.3384 139.725 98.2351L139.619 90.8814L142.841 92.9389L142.448 99.6067C142.59 100.096 142.548 100.62 142.329 101.08C142.11 101.54 141.73 101.904 141.26 102.102C140.791 102.301 140.265 102.321 139.782 102.158C139.299 101.994 138.893 101.66 138.641 101.218Z" fill="#A0616A"/>
<path d="M134.757 61.2929C133.802 61.4616 132.934 61.956 132.303 62.6919C131.671 63.4278 131.315 64.3597 131.293 65.3289C131.247 67.4811 131.965 68.2836 132.981 68.5736C134.858 69.1096 137.848 79.951 137.848 79.951C137.848 79.951 138.165 90.0626 138.677 89.5633C139.189 89.064 138.61 90.2292 138.765 90.5847C138.921 90.9402 138.028 91.4727 138.877 91.8765C139.725 92.2804 139.189 95.4967 139.189 95.4967L142.944 95.2287C142.944 95.2287 142.32 92.6085 143.168 92.4444C144.016 92.2804 143.631 91.5347 143.287 90.9694C142.944 90.4042 143.895 89.5985 143.419 89.3313C142.944 89.064 144.284 78.6108 144.284 78.6108L139.042 63.1938C138.598 62.4867 137.953 61.928 137.19 61.5893C136.426 61.2507 135.579 61.1475 134.757 61.2929Z" fill="#F3BB1C"/>
<path d="M123.366 61.8997L126.067 57.1684H129.716L132.453 62.1677L123.366 61.8997Z" fill="#F3BB1C"/>
<path d="M116.101 19.3534C113.943 12.1288 107.846 7.41239 100.479 6.37772C100.398 6.36631 100.321 6.38139 100.24 6.37619C100.136 6.34433 100.03 6.31983 99.9218 6.30288C89.7902 4.99422 78.7303 7.338 69.9276 12.8425C61.4898 18.1188 51.7946 21.096 41.8415 21.0298C41.5325 21.0278 41.2222 21.0345 40.9106 21.0499C33.251 21.4319 26.4912 27.0043 24.4205 34.3336C24.1487 35.2953 24.6223 36.1545 25.3838 36.6995C26.7218 37.6573 27.6359 38.3286 29.2822 38.6771C32.2197 39.2991 35.1673 39.871 38.125 40.3929V28.6186C38.1263 27.5039 38.5699 26.4353 39.3586 25.6471C40.1472 24.8589 41.2165 24.4155 42.3318 24.4142H100.118C101.233 24.4155 102.302 24.8589 103.091 25.6471C103.88 26.4353 104.323 27.5039 104.325 28.6186V43.2818C105.117 43.0341 105.891 42.7298 106.64 42.371C109.427 40.995 111.809 38.9179 113.551 36.3439C116.896 31.4924 117.78 24.9723 116.101 19.3534Z" fill="#F2F2F2"/>
<path d="M91.7708 88.2599H40.6873C39.5085 88.2586 38.3784 87.79 37.5448 86.9569C36.7113 86.1238 36.2424 84.9944 36.241 83.8162V64.006C30.0191 62.1024 23.4661 61.5284 17.0077 62.3212C16.8999 62.3381 16.7935 62.3626 16.6892 62.3945C16.6085 62.3997 16.5316 62.3846 16.4505 62.396C9.08329 63.4307 2.98639 68.1471 0.828312 75.3717C-0.850245 80.9906 0.0333763 87.5107 3.3789 92.3621C5.12048 94.9362 7.50204 97.0133 10.2897 98.3893C14.1214 100.234 18.1543 100.373 22.3364 100.503C34.8929 100.895 47.4615 100.42 59.9526 99.0819C66.0998 98.423 72.2214 97.5619 78.3176 96.4985C81.4378 95.9528 84.5477 95.3518 87.6473 94.6954C89.2936 94.3468 90.2076 93.6756 91.5457 92.7178C92.3072 92.1728 92.7807 91.3135 92.509 90.3519C92.3071 89.6398 92.0605 88.9411 91.7708 88.2599Z" fill="#F2F2F2"/>
<path d="M96.2916 82.3828H46.158C45.1904 82.3817 44.2627 81.9971 43.5785 81.3132C42.8942 80.6294 42.5094 79.7023 42.5082 78.7352V32.1722C42.5094 31.2052 42.8942 30.278 43.5785 29.5942C44.2627 28.9104 45.1904 28.5257 46.158 28.5246H96.2916C97.2593 28.5257 98.1869 28.9104 98.8712 29.5942C99.5554 30.278 99.9403 31.2052 99.9414 32.1722V78.7352C99.9403 79.7023 99.5554 80.6294 98.8712 81.3132C98.1869 81.9971 97.2593 82.3817 96.2916 82.3828Z" fill="#E6E6E6"/>
<path d="M85.74 79.9225H48.6204C47.6528 79.9213 46.7251 79.5367 46.0409 78.8529C45.3567 78.169 44.9718 77.2419 44.9706 76.2748V34.6346C44.9718 33.6675 45.3567 32.7404 46.0409 32.0565C46.7251 31.3727 47.6528 30.9881 48.6204 30.9869H93.8298C94.7975 30.9881 95.7252 31.3727 96.4094 32.0565C97.0936 32.7404 97.4785 33.6675 97.4796 34.6346V68.1897C97.4761 71.3004 96.2381 74.2826 94.0373 76.4822C91.8364 78.6817 88.8525 79.919 85.74 79.9225Z" fill="white"/>
<path d="M71.2251 71.8045C80.2602 71.8045 87.5845 64.4845 87.5845 55.4547C87.5845 46.4249 80.2602 39.1049 71.2251 39.1049C62.1901 39.1049 54.8657 46.4249 54.8657 55.4547C54.8657 64.4845 62.1901 71.8045 71.2251 71.8045Z" fill="#F3BB1C"/>
<path d="M78.1166 54.6321L72.6574 47.9973C72.5093 47.8173 72.3238 47.6717 72.1138 47.5704C71.9038 47.4691 71.6743 47.4147 71.4411 47.4108C71.208 47.407 70.9768 47.4538 70.7636 47.548C70.5503 47.6423 70.3601 47.7817 70.2061 47.9567L64.3681 54.5915C64.0868 54.9119 63.9444 55.3308 63.9719 55.7561C63.9995 56.1814 64.1949 56.5784 64.5151 56.8598C64.8353 57.1413 65.2543 57.2842 65.6799 57.2571C66.1054 57.2301 66.5029 57.0353 66.7849 56.7156L69.8054 53.2828V61.8906C69.8054 62.3171 69.975 62.7262 70.2767 63.0278C70.5785 63.3294 70.9878 63.4988 71.4146 63.4988C71.8413 63.4988 72.2506 63.3294 72.5524 63.0278C72.8541 62.7262 73.0237 62.3171 73.0237 61.8906V53.5064L75.6309 56.675C75.902 57.0045 76.2929 57.2128 76.7176 57.2542C77.1424 57.2956 77.5662 57.1666 77.8958 56.8957C78.2254 56.6248 78.4339 56.2341 78.4753 55.8096C78.5167 55.3851 78.3877 54.9615 78.1166 54.6321Z" fill="white"/>
<path d="M141.724 155.008L139.297 155.008L138.143 145.652L141.725 145.652L141.724 155.008Z" fill="#A0616A"/>
<path d="M141.81 157.539L134.346 157.538V157.444C134.346 156.674 134.652 155.936 135.197 155.391C135.742 154.847 136.481 154.541 137.251 154.541L138.615 153.507L141.158 154.541L141.81 154.541L141.81 157.539Z" fill="#2F2E41"/>
<path d="M123.487 155.008L121.061 155.008L119.906 145.652L123.488 145.652L123.487 155.008Z" fill="#A0616A"/>
<path d="M123.573 157.539L116.11 157.538V157.444C116.11 156.674 116.416 155.936 116.961 155.391C117.505 154.847 118.244 154.541 119.015 154.541L120.378 153.507L122.922 154.541L123.573 154.541L123.573 157.539Z" fill="#2F2E41"/>
<path d="M142.498 147.265C143.384 146.686 142.871 146.724 142.871 146.724C142.871 146.724 140.891 130.68 139.384 125.818L137.641 102.141C137.641 102.141 137.53 102.613 137.641 101.465C137.752 100.317 138.556 101.121 137.752 100.317C136.947 99.5132 136.411 99.1034 136.947 98.5042C137.483 97.905 138.963 96.6927 138.089 95.9587C137.215 95.2247 135.495 90.4377 135.495 90.4377L118.734 90.5717L119.404 90.4377C119.404 90.4377 117.312 89.6618 118.27 90.6722C119.229 91.6826 117.734 94.1566 117.198 96.5689C116.753 98.5668 115.435 99.097 117.198 99.5172C118.961 99.9375 117.365 101.128 117.365 101.128C117.365 101.128 114.711 113.756 116.722 122.065C116.722 122.065 118.11 142.616 118.812 144.383C119.515 146.15 119.783 145.078 119.515 146.15C119.247 147.223 118.71 145.346 119.247 147.223C119.539 148.203 119.771 149.2 119.941 150.208L123.578 149.94C123.578 149.94 124.423 147.28 123.578 146.581C122.733 145.882 123.316 147.921 124.232 146.366C125.147 144.81 124.074 145.346 123.806 143.202C123.538 141.058 125.998 131.069 124.232 124.94L127.496 107.743L132.68 125.55C132.68 125.55 135.429 147.298 136.322 148.064C137.215 148.831 136.855 146.97 137.215 148.831C137.58 150.711 138.408 150.212 138.384 150.443C138.135 152.901 142.498 150.476 142.498 150.476C142.455 149.852 142.455 149.225 142.498 148.6C142.579 148.027 141.613 147.843 142.498 147.265Z" fill="#2F2E41"/>
<path d="M120.416 96.0328C119.343 96.0328 116.393 94.5808 116.929 93.9666C117.466 93.3525 117.466 91.3138 117.466 90.725C117.466 90.1361 119.879 68.4257 119.879 68.4257L119.696 63.11C119.685 62.7914 119.738 62.4738 119.853 62.1762C119.967 61.8786 120.14 61.607 120.362 61.3777C120.584 61.1484 120.849 60.9661 121.143 60.8415C121.437 60.717 121.752 60.6528 122.071 60.6528L124.439 59.8487L131.143 59.5807L134.487 60.6528C134.818 60.6528 135.145 60.7379 135.434 60.8999C135.723 61.062 135.966 61.2955 136.14 61.5782C136.313 61.861 136.411 62.1834 136.423 62.5147C136.436 62.8459 136.364 63.175 136.213 63.4703C137.987 66.365 138.878 69.7142 138.775 73.1072C138.698 75.6458 137.411 78.746 137.101 81.614C137.074 81.8657 137.054 82.1156 137.043 82.3633C137.04 82.4323 136.491 82.7764 137.036 82.5698C137.58 82.3633 136.744 83.0924 137.028 83.5319C137.312 83.9714 137.862 83.7021 137.05 84.2388C136.239 84.7755 138.025 89.9597 137.848 90.1361C137.312 90.6722 136.239 90.9402 137.043 91.7443C137.848 92.5484 138.653 92.0123 137.58 93.0845C136.507 94.1566 133.293 96.0328 133.293 96.0328L120.416 96.0328Z" fill="#3F3D56"/>
<path d="M127.586 56.4683C130.774 56.4683 133.358 53.8855 133.358 50.6994C133.358 47.5133 130.774 44.9305 127.586 44.9305C124.398 44.9305 121.813 47.5133 121.813 50.6994C121.813 53.8855 124.398 56.4683 127.586 56.4683Z" fill="#A0616A"/>
<path d="M92.4289 68.5983C92.7058 68.476 93.0061 68.4158 93.3088 68.422C93.6115 68.4283 93.9091 68.5008 94.1807 68.6344C94.4523 68.768 94.6913 68.9595 94.8808 69.1954C95.0704 69.4314 95.2058 69.7059 95.2777 69.9999L102.604 70.6924L100.207 73.6706L93.6177 72.5563C93.1157 72.6443 92.5988 72.5451 92.1651 72.2776C91.7313 72.0101 91.4108 71.5929 91.2643 71.105C91.1177 70.6171 91.1554 70.0925 91.37 69.6305C91.5847 69.1685 91.9614 68.8012 92.4289 68.5983Z" fill="#A0616A"/>
<path d="M127.164 64.3039C126.996 63.3493 126.501 62.4826 125.765 61.8515C125.028 61.2203 124.096 60.8638 123.126 60.8425C120.973 60.7959 120.17 61.5141 119.879 62.529C119.343 64.4052 110.708 71.0004 110.708 71.0004L103.293 70.1984C102.847 70.0536 103.058 69.6477 101.382 69.9917C100.556 69.4511 100.022 69.5427 99.562 69.7949L96.8154 69.4978L97.0836 73.7863C97.0836 73.7863 100.024 73.0873 100.57 74.3224C101.116 75.5574 100.991 75.7349 102.179 74.8584C103.367 73.982 103.252 74.8584 103.252 74.8584L111.834 77.0027L125.262 68.5863C125.97 68.1429 126.529 67.4984 126.868 66.7355C127.207 65.9725 127.31 65.1259 127.164 64.3039Z" fill="#F3BB1C"/>
<path d="M129.827 55.8497L130.205 55.9703C129.022 56.0695 126.914 56.7289 127.121 56.3643C127.327 55.9998 126.547 54.6248 126.927 54.4506C127.323 54.3118 127.676 54.0726 127.952 53.7564C128.193 53.4187 128.188 52.8612 127.826 52.6548C127.475 52.4511 127.04 52.6709 126.691 52.8773C126.34 53.081 125.691 50.0844 125.857 49.149C124.879 48.6129 123.693 49.6395 122.594 49.4384C121.92 49.3151 121.435 48.763 121.129 48.1358C121.629 47.6623 122 47.0704 122.21 46.4151C121.743 46.6501 121.244 46.8153 120.73 46.9055C120.637 46.4189 120.65 45.9181 120.767 45.4367C120.857 45.0525 121.04 44.6963 121.301 44.3999C121.561 44.1035 121.891 43.8759 122.261 43.7374C122.636 43.6131 123.042 43.6203 123.413 43.7577C123.783 43.8951 124.096 44.1545 124.299 44.4933C124.322 44.1284 124.228 43.7658 124.032 43.4575C123.835 43.1493 123.546 42.9113 123.205 42.7779C123.454 42.649 123.728 42.5793 124.008 42.5741C124.288 42.5689 124.566 42.6285 124.819 42.7481C125.072 42.8677 125.294 43.0441 125.468 43.2636C125.641 43.4831 125.762 43.7398 125.82 44.0135C127.031 43.4069 128.421 43.2584 129.733 43.5954C131.031 43.9358 132.752 45.3751 132.752 45.3751C135.681 46.0211 135.542 57.1497 129.827 55.8497Z" fill="#2F2E41"/>
<path d="M160.407 155.238C160.474 155.242 160.54 155.224 160.596 155.188C160.653 155.152 160.697 155.1 160.723 155.039C160.749 154.977 160.755 154.909 160.741 154.843C160.726 154.778 160.692 154.719 160.643 154.673L160.621 154.585L160.63 154.563C160.697 154.404 160.81 154.269 160.954 154.174C161.098 154.079 161.267 154.028 161.44 154.029C161.613 154.03 161.781 154.081 161.925 154.177C162.068 154.274 162.18 154.41 162.246 154.569C162.51 155.205 162.847 155.843 162.929 156.515C162.966 156.813 162.951 157.114 162.884 157.406C163.505 156.053 163.827 154.582 163.829 153.093C163.829 152.72 163.809 152.346 163.767 151.975C163.733 151.671 163.685 151.368 163.624 151.068C163.291 149.44 162.577 147.915 161.54 146.616C161.037 146.342 160.631 145.921 160.376 145.41C160.284 145.226 160.218 145.03 160.182 144.827C160.292 144.537 160.35 144.23 160.353 143.92C160.432 143.8 160.573 143.74 160.659 143.624C161.088 143.043 161.679 143.144 161.987 143.934C162.646 144.266 162.652 144.817 162.248 145.347C161.991 145.684 161.956 146.14 161.73 146.501C161.753 146.531 161.777 146.56 161.8 146.589C162.225 147.135 162.595 147.72 162.905 148.337C162.829 147.646 162.919 146.946 163.167 146.296C163.419 145.69 163.89 145.18 164.304 144.656C164.414 144.515 164.563 144.41 164.732 144.354C164.902 144.298 165.084 144.293 165.256 144.341C165.428 144.388 165.582 144.486 165.699 144.621C165.816 144.756 165.89 144.922 165.912 145.099L165.915 145.122C165.853 145.157 165.793 145.194 165.734 145.233C165.659 145.282 165.602 145.353 165.569 145.436C165.536 145.518 165.528 145.609 165.547 145.696C165.567 145.783 165.612 145.862 165.677 145.923C165.742 145.984 165.824 146.024 165.912 146.038L165.921 146.039C165.899 146.261 165.86 146.481 165.805 146.697C166.337 148.754 165.188 149.503 163.548 149.536C163.512 149.555 163.476 149.573 163.44 149.591C163.752 150.473 163.947 151.392 164.021 152.325C164.063 152.875 164.061 153.428 164.014 153.977L164.017 153.958C164.136 153.347 164.462 152.795 164.941 152.396C165.652 151.813 166.656 151.598 167.423 151.128C167.504 151.076 167.599 151.048 167.696 151.048C167.793 151.048 167.888 151.075 167.97 151.127C168.051 151.179 168.117 151.253 168.158 151.341C168.199 151.429 168.214 151.526 168.201 151.622L168.198 151.643C168.083 151.689 167.972 151.743 167.864 151.803C167.803 151.838 167.742 151.875 167.683 151.914C167.609 151.963 167.552 152.034 167.519 152.117C167.485 152.2 167.478 152.29 167.497 152.377C167.516 152.464 167.562 152.543 167.627 152.604C167.692 152.665 167.774 152.705 167.862 152.719L167.871 152.72L167.889 152.723C167.694 153.189 167.42 153.618 167.079 153.991C166.746 155.787 165.317 155.957 163.788 155.434H163.787C163.62 156.163 163.377 156.872 163.062 157.55H160.472C160.463 157.521 160.454 157.492 160.446 157.463C160.686 157.478 160.926 157.463 161.163 157.42C160.97 157.184 160.778 156.947 160.586 156.711C160.582 156.707 160.578 156.702 160.574 156.697C160.476 156.577 160.378 156.457 160.281 156.336C160.275 155.966 160.318 155.597 160.407 155.238Z" fill="#F2F2F2"/>
<path d="M74.1614 157.918L178.681 158C178.765 158 178.847 157.966 178.906 157.907C178.966 157.847 179 157.766 179 157.681C179 157.596 178.966 157.515 178.906 157.455C178.847 157.395 178.765 157.362 178.681 157.362L74.1614 157.279C74.0767 157.279 73.9955 157.313 73.9356 157.373C73.8757 157.433 73.8421 157.514 73.8421 157.598C73.8421 157.683 73.8757 157.764 73.9356 157.824C73.9955 157.884 74.0767 157.918 74.1614 157.918Z" fill="#CACACA"/>
<path d="M68.8216 113.187C68.0713 113.187 67.3378 112.964 66.714 112.548C66.0901 112.131 65.6039 111.539 65.3167 110.846C65.0296 110.153 64.9545 109.391 65.1008 108.656C65.2472 107.92 65.6085 107.245 66.1391 106.714C66.6696 106.184 67.3456 105.823 68.0815 105.677C68.8174 105.53 69.5802 105.606 70.2733 105.892C70.9665 106.179 71.559 106.665 71.9759 107.289C72.3927 107.912 72.6152 108.645 72.6152 109.395C72.6141 110.401 72.214 111.364 71.5028 112.075C70.7916 112.786 69.8274 113.186 68.8216 113.187ZM68.8216 106.14C68.1774 106.14 67.5476 106.331 67.012 106.689C66.4763 107.046 66.0588 107.555 65.8123 108.15C65.5657 108.744 65.5012 109.399 65.6269 110.03C65.7526 110.662 66.0628 111.242 66.5184 111.697C66.9739 112.152 67.5543 112.463 68.1861 112.588C68.818 112.714 69.4729 112.649 70.0681 112.403C70.6633 112.156 71.172 111.739 71.5299 111.204C71.8878 110.669 72.0789 110.039 72.0789 109.395C72.0779 108.532 71.7344 107.705 71.1238 107.094C70.5131 106.484 69.6852 106.141 68.8216 106.14Z" fill="#F2F2F2"/>
<path d="M70.3067 109.218L69.1303 107.788C69.0983 107.749 69.0584 107.718 69.0131 107.696C68.9679 107.674 68.9184 107.663 68.8681 107.662C68.8179 107.661 68.7681 107.671 68.7221 107.691C68.6762 107.712 68.6352 107.742 68.602 107.779L67.3439 109.209C67.2838 109.278 67.2534 109.368 67.2596 109.46C67.2657 109.551 67.3078 109.636 67.3766 109.697C67.4454 109.757 67.5354 109.788 67.6268 109.783C67.7183 109.777 67.8038 109.735 67.8647 109.667L68.5156 108.927V110.782C68.5156 110.874 68.5522 110.962 68.6172 111.027C68.6822 111.092 68.7704 111.129 68.8624 111.129C68.9544 111.129 69.0426 111.092 69.1076 111.027C69.1726 110.962 69.2092 110.874 69.2092 110.782V108.975L69.771 109.658C69.8294 109.729 69.9137 109.774 70.0052 109.783C70.0968 109.792 70.1881 109.764 70.2591 109.706C70.3302 109.647 70.3751 109.563 70.384 109.472C70.3929 109.38 70.3652 109.289 70.3067 109.218Z" fill="#F2F2F2"/>
<path d="M112 57.1684C111.249 57.1684 110.516 56.9461 109.892 56.5294C109.268 56.1128 108.782 55.5207 108.495 54.8279C108.208 54.1351 108.133 53.3728 108.279 52.6373C108.425 51.9019 108.787 51.2263 109.317 50.6961C109.848 50.1658 110.524 49.8047 111.26 49.6584C111.995 49.5121 112.758 49.5872 113.451 49.8742C114.145 50.1611 114.737 50.6471 115.154 51.2706C115.571 51.8941 115.793 52.6271 115.793 53.377C115.792 54.3822 115.392 55.3459 114.681 56.0567C113.97 56.7675 113.005 57.1673 112 57.1684ZM112 50.1216C111.355 50.1216 110.726 50.3126 110.19 50.6703C109.654 51.028 109.237 51.5364 108.99 52.1312C108.744 52.7261 108.679 53.3806 108.805 54.0121C108.931 54.6436 109.241 55.2236 109.696 55.6789C110.152 56.1342 110.732 56.4442 111.364 56.5698C111.996 56.6954 112.651 56.631 113.246 56.3846C113.841 56.1382 114.35 55.7209 114.708 55.1856C115.066 54.6502 115.257 54.0208 115.257 53.377C115.256 52.5139 114.912 51.6865 114.302 51.0762C113.691 50.4659 112.863 50.1226 112 50.1216Z" fill="#F2F2F2"/>
<path d="M113.485 53.1997L112.308 51.7699C112.276 51.7311 112.236 51.6997 112.191 51.6779C112.146 51.656 112.096 51.6443 112.046 51.6435C111.996 51.6426 111.946 51.6527 111.9 51.673C111.854 51.6934 111.813 51.7234 111.78 51.7611L110.522 53.1909C110.462 53.26 110.432 53.3501 110.438 53.4415C110.444 53.5329 110.486 53.6181 110.555 53.6786C110.623 53.7391 110.713 53.7699 110.805 53.7643C110.896 53.7587 110.982 53.7171 111.043 53.6487L111.694 52.9089V54.7639C111.694 54.8558 111.73 54.944 111.795 55.009C111.86 55.074 111.949 55.1105 112.04 55.1105C112.132 55.1105 112.221 55.074 112.286 55.009C112.351 54.944 112.387 54.8558 112.387 54.7639V52.9571L112.949 53.6399C113.008 53.7109 113.092 53.7558 113.183 53.7648C113.275 53.7737 113.366 53.7459 113.437 53.6875C113.508 53.6291 113.553 53.5449 113.562 53.4534C113.571 53.362 113.543 53.2707 113.485 53.1997Z" fill="#F2F2F2"/>
<path d="M26.4481 53.952C25.6978 53.952 24.9643 53.7297 24.3405 53.3131C23.7166 52.8965 23.2304 52.3043 22.9432 51.6115C22.6561 50.9187 22.581 50.1564 22.7273 49.421C22.8737 48.6855 23.235 48.0099 23.7656 47.4797C24.2961 46.9494 24.9721 46.5883 25.708 46.4421C26.4439 46.2958 27.2067 46.3708 27.8999 46.6578C28.593 46.9448 29.1855 47.4307 29.6024 48.0542C30.0192 48.6777 30.2417 49.4107 30.2417 50.1606C30.2406 51.1658 29.8405 52.1295 29.1293 52.8403C28.4181 53.5511 27.4539 53.9509 26.4481 53.952ZM26.4481 46.9053C25.8039 46.9053 25.1741 47.0962 24.6384 47.4539C24.1028 47.8116 23.6853 48.32 23.4388 48.9149C23.1922 49.5097 23.1277 50.1642 23.2534 50.7957C23.3791 51.4272 23.6893 52.0072 24.1449 52.4625C24.6004 52.9178 25.1808 53.2278 25.8126 53.3534C26.4445 53.4791 27.0994 53.4146 27.6946 53.1682C28.2898 52.9218 28.7985 52.5046 29.1564 51.9692C29.5143 51.4339 29.7054 50.8045 29.7053 50.1606C29.7044 49.2975 29.3609 48.4701 28.7503 47.8598C28.1396 47.2495 27.3117 46.9062 26.4481 46.9053Z" fill="#F2F2F2"/>
<path d="M27.9332 49.9833L26.7567 48.5535C26.7248 48.5147 26.6848 48.4833 26.6396 48.4615C26.5943 48.4397 26.5449 48.4279 26.4946 48.4271C26.4444 48.4263 26.3946 48.4364 26.3486 48.4567C26.3026 48.477 26.2617 48.507 26.2285 48.5447L24.9704 49.9746C24.9102 50.0437 24.8799 50.1338 24.886 50.2251C24.8922 50.3165 24.9342 50.4018 25.003 50.4622C25.0718 50.5227 25.1618 50.5535 25.2533 50.5479C25.3447 50.5423 25.4303 50.5007 25.4912 50.4323L26.1421 49.6925V51.5476C26.1421 51.6395 26.1786 51.7276 26.2437 51.7926C26.3087 51.8576 26.3969 51.8941 26.4889 51.8941C26.5808 51.8941 26.669 51.8576 26.7341 51.7926C26.7991 51.7276 26.8356 51.6395 26.8356 51.5476V49.7407L27.3975 50.4236C27.4559 50.4946 27.5402 50.5395 27.6317 50.5484C27.7232 50.5573 27.8146 50.5295 27.8856 50.4711C27.9566 50.4128 28.0015 50.3286 28.0105 50.2371C28.0194 50.1456 27.9916 50.0543 27.9332 49.9833Z" fill="#F2F2F2"/>
<path d="M56.7532 7.58285C56.0029 7.58285 55.2694 7.36049 54.6455 6.94388C54.0217 6.52727 53.5354 5.93513 53.2483 5.24234C52.9612 4.54955 52.8861 3.78722 53.0324 3.05176C53.1788 2.31629 53.5401 1.64073 54.0707 1.11049C54.6012 0.580245 55.2772 0.219147 56.0131 0.0728539C56.749 -0.0734392 57.5117 0.00164014 58.2049 0.288604C58.8981 0.575568 59.4906 1.06153 59.9075 1.68502C60.3243 2.30852 60.5468 3.04155 60.5468 3.79143C60.5457 4.79662 60.1456 5.76032 59.4344 6.47111C58.7232 7.18189 57.759 7.58171 56.7532 7.58285ZM56.7532 0.536066C56.109 0.536066 55.4792 0.726991 54.9435 1.08469C54.4079 1.4424 53.9904 1.95081 53.7439 2.54565C53.4973 3.1405 53.4328 3.79504 53.5585 4.42652C53.6842 5.058 53.9944 5.63805 54.4499 6.09332C54.9055 6.54859 55.4859 6.85863 56.1177 6.98424C56.7496 7.10985 57.4045 7.04539 57.9997 6.79899C58.5949 6.5526 59.1036 6.13535 59.4615 5.60001C59.8194 5.06466 60.0104 4.43528 60.0104 3.79143C60.0095 2.92834 59.666 2.10088 59.0554 1.49059C58.4447 0.880301 57.6168 0.537024 56.7532 0.536066Z" fill="#F2F2F2"/>
<path d="M58.2383 3.6141L57.0618 2.18429C57.0299 2.1455 56.9899 2.11411 56.9447 2.09229C56.8994 2.07047 56.85 2.05874 56.7997 2.05791C56.7495 2.05708 56.6997 2.06717 56.6537 2.08748C56.6078 2.10779 56.5668 2.13784 56.5336 2.17554L55.2755 3.60536C55.2153 3.67447 55.185 3.76456 55.1911 3.85594C55.1973 3.94732 55.2393 4.03256 55.3081 4.09304C55.377 4.15352 55.4669 4.18432 55.5584 4.17871C55.6499 4.1731 55.7354 4.13154 55.7963 4.06311L56.4472 3.32335V5.17835C56.4472 5.27027 56.4837 5.35841 56.5488 5.42341C56.6138 5.4884 56.702 5.52492 56.794 5.52492C56.8859 5.52492 56.9741 5.4884 57.0392 5.42341C57.1042 5.35841 57.1407 5.27027 57.1407 5.17835V3.37153L57.7026 4.05438C57.761 4.12537 57.8453 4.17026 57.9368 4.17918C58.0283 4.1881 58.1197 4.16031 58.1907 4.10193C58.2617 4.04355 58.3067 3.95935 58.3156 3.86787C58.3245 3.77639 58.2967 3.6851 58.2383 3.6141Z" fill="#F2F2F2"/>
<path d="M16.257 82.0952C15.5067 82.0953 14.7732 81.8729 14.1493 81.4563C13.5254 81.0397 13.0392 80.4475 12.752 79.7547C12.4649 79.0619 12.3897 78.2996 12.5361 77.5641C12.6825 76.8286 13.0438 76.153 13.5744 75.6228C14.1049 75.0925 14.7809 74.7314 15.5168 74.5851C16.2527 74.4388 17.0155 74.5139 17.7087 74.8009C18.402 75.0879 18.9945 75.5738 19.4113 76.1974C19.8282 76.8209 20.0506 77.5539 20.0506 78.3038C20.0495 79.309 19.6494 80.2727 18.9382 80.9835C18.227 81.6943 17.2628 82.0941 16.257 82.0952ZM16.257 75.0483C15.6128 75.0483 14.983 75.2392 14.4473 75.5969C13.9116 75.9546 13.4941 76.463 13.2476 77.0579C13.001 77.6527 12.9365 78.3073 13.0622 78.9388C13.1879 79.5703 13.4981 80.1504 13.9536 80.6056C14.4091 81.0609 14.9895 81.371 15.6214 81.4966C16.2533 81.6222 16.9082 81.5578 17.5034 81.3114C18.0986 81.065 18.6073 80.6478 18.9653 80.1124C19.3232 79.5771 19.5143 78.9477 19.5143 78.3038C19.5133 77.4407 19.1698 76.6133 18.5592 76.0029C17.9485 75.3926 17.1206 75.0493 16.257 75.0483Z" fill="white"/>
<path d="M17.7421 78.1265L16.5656 76.6967C16.5337 76.6579 16.4938 76.6265 16.4485 76.6047C16.4032 76.5829 16.3538 76.5711 16.3035 76.5703C16.2533 76.5695 16.2035 76.5796 16.1575 76.5999C16.1116 76.6202 16.0706 76.6502 16.0374 76.6879L14.7793 78.1178C14.7192 78.1869 14.6888 78.277 14.695 78.3683C14.7011 78.4597 14.7432 78.545 14.812 78.6054C14.8808 78.6659 14.9707 78.6967 15.0622 78.6911C15.1537 78.6855 15.2392 78.6439 15.3001 78.5755L15.951 77.8357V79.6907C15.951 79.7827 15.9876 79.8708 16.0526 79.9358C16.1176 80.0008 16.2058 80.0373 16.2978 80.0373C16.3898 80.0373 16.478 80.0008 16.543 79.9358C16.608 79.8708 16.6446 79.7827 16.6446 79.6907V77.8839L17.2064 78.5668C17.2648 78.6378 17.3491 78.6827 17.4406 78.6916C17.5322 78.7005 17.6235 78.6727 17.6945 78.6143C17.7656 78.5559 17.8105 78.4717 17.8194 78.3803C17.8283 78.2888 17.8005 78.1975 17.7421 78.1265Z" fill="white"/>
<path d="M98.3222 18.5721C97.5718 18.5721 96.8383 18.3497 96.2145 17.9331C95.5906 17.5165 95.1043 16.9244 94.8172 16.2316C94.53 15.5388 94.4549 14.7764 94.6013 14.0409C94.7477 13.3054 95.109 12.6299 95.6395 12.0996C96.1701 11.5694 96.8461 11.2083 97.582 11.062C98.3179 10.9157 99.0807 10.9908 99.7739 11.2777C100.467 11.5647 101.06 12.0507 101.476 12.6742C101.893 13.2977 102.116 14.0308 102.116 14.7807C102.115 15.7859 101.715 16.7496 101.003 17.4603C100.292 18.1711 99.3279 18.5709 98.3222 18.5721ZM98.3222 11.5252C97.6779 11.5252 97.0481 11.7161 96.5125 12.0738C95.9768 12.4315 95.5593 12.9399 95.3127 13.5347C95.0662 14.1296 95.0017 14.7841 95.1273 15.4156C95.253 16.0471 95.5632 16.6272 96.0188 17.0825C96.4743 17.5378 97.0547 17.8478 97.6866 17.9735C98.3184 18.0991 98.9734 18.0346 99.5686 17.7882C100.164 17.5419 100.672 17.1246 101.03 16.5893C101.388 16.0539 101.579 15.4245 101.579 14.7807C101.578 13.9176 101.235 13.0901 100.624 12.4798C100.014 11.8695 99.1858 11.5262 98.3222 11.5252Z" fill="white"/>
<path d="M99.8073 14.6033L98.6308 13.1735C98.5989 13.1347 98.5589 13.1033 98.5137 13.0815C98.4684 13.0597 98.4189 13.048 98.3687 13.0471C98.3185 13.0463 98.2686 13.0564 98.2227 13.0767C98.1767 13.097 98.1357 13.1271 98.1026 13.1648L96.8444 14.5946C96.7843 14.6637 96.754 14.7538 96.7601 14.8452C96.7662 14.9365 96.8083 15.0218 96.8771 15.0823C96.9459 15.1427 97.0359 15.1735 97.1274 15.1679C97.2188 15.1623 97.3044 15.1208 97.3653 15.0523L98.0162 14.3126V16.1676C98.0162 16.2595 98.0527 16.3476 98.1177 16.4126C98.1828 16.4776 98.271 16.5141 98.3629 16.5141C98.4549 16.5141 98.5431 16.4776 98.6082 16.4126C98.6732 16.3476 98.7097 16.2595 98.7097 16.1676V14.3608L99.2716 15.0436C99.33 15.1146 99.4142 15.1595 99.5058 15.1684C99.5973 15.1773 99.6886 15.1495 99.7597 15.0912C99.8307 15.0328 99.8756 14.9486 99.8845 14.8571C99.8935 14.7656 99.8657 14.6743 99.8073 14.6033Z" fill="white"/>
</g>
<defs>
<clipPath id="clip0_119_7213">
<rect width="179" height="158" fill="white"/>
</clipPath>
</defs>
</svg>
