<svg width="32" height="32" viewBox="0 0 32 32" fill="none" xmlns="http://www.w3.org/2000/svg">
<path d="M12.088 6.2715C12.2852 6.27175 12.4781 6.21325 12.642 6.1035L15.2485 4.3655V14.9825C15.2485 15.2477 15.3538 15.502 15.5414 15.6896C15.7289 15.8771 15.9833 15.9825 16.2485 15.9825C16.5137 15.9825 16.768 15.8771 16.9556 15.6896C17.1431 15.502 17.2485 15.2477 17.2485 14.9825V4.365L19.856 6.1035C19.9652 6.1764 20.0878 6.22705 20.2166 6.2526C20.3454 6.27815 20.4781 6.27805 20.6069 6.2523C20.7357 6.2266 20.8581 6.17575 20.9673 6.1027C21.0764 6.0296 21.1701 5.93575 21.243 5.8265C21.3158 5.7172 21.3665 5.59465 21.392 5.4658C21.4175 5.33695 21.4173 5.2043 21.3916 5.0755C21.3658 4.94672 21.3149 4.82424 21.2418 4.71512C21.1687 4.60599 21.0748 4.51233 20.9655 4.4395L16.8085 1.668H16.805L16.7985 1.665C16.726 1.61865 16.6479 1.58185 16.566 1.5555C16.547 1.549 16.5285 1.543 16.509 1.538C16.4247 1.51387 16.3376 1.50109 16.25 1.5C16.1625 1.50109 16.0756 1.51388 15.9915 1.538C15.972 1.543 15.9535 1.549 15.934 1.5555C15.8522 1.58206 15.774 1.61885 15.7015 1.665L15.6955 1.668H15.692L11.5355 4.4395C11.4262 4.51233 11.3323 4.60599 11.2592 4.71512C11.1861 4.82424 11.1352 4.94672 11.1094 5.0755C11.0836 5.2043 11.0835 5.33695 11.109 5.4658C11.1345 5.59465 11.1851 5.7172 11.258 5.8265C11.3491 5.96315 11.4725 6.0752 11.6173 6.1528C11.7621 6.23045 11.9237 6.2712 12.088 6.2715Z" fill="#F3BB1C"/>
<path opacity="0.9" d="M24.65 7.66449H18.75V14.9845C18.748 15.6469 18.484 16.2816 18.0156 16.75C17.5472 17.2185 16.9124 17.4825 16.25 17.4845C15.5873 17.4834 14.952 17.2197 14.4834 16.7511C14.0148 16.2825 13.751 15.6472 13.75 14.9845V7.66449H7.85C7.09415 7.66449 6.36925 7.96474 5.83475 8.49924C5.30025 9.03369 5 9.75864 5 10.5145V27.3145C5 28.0703 5.30025 28.7952 5.83475 29.3297C6.36925 29.8642 7.09415 30.1645 7.85 30.1645H24.65C25.4054 30.1631 26.1296 29.8625 26.6638 29.3283C27.198 28.7941 27.4986 28.0699 27.5 27.3145V10.5145C27.5 9.75864 27.1998 9.03369 26.6653 8.49924C26.1308 7.96474 25.4058 7.66449 24.65 7.66449Z" fill="#FBEAB9"/>
</svg>
