<svg width="32" height="32" viewBox="0 0 32 32" fill="none" xmlns="http://www.w3.org/2000/svg">
<path opacity="0.4" d="M28.1201 28.6667C28.1201 29.04 27.8268 29.3333 27.4535 29.3333H4.54689C4.17355 29.3333 3.88022 29.04 3.88022 28.6667C3.88022 23.1467 9.32021 18.6667 16.0003 18.6667C17.3736 18.6667 18.7069 18.8533 19.9336 19.2133C19.1469 20.1467 18.6669 21.36 18.6669 22.6667C18.6669 23.6667 18.9468 24.6133 19.4401 25.4133C19.7068 25.8667 20.0535 26.28 20.4535 26.6267C21.3868 27.48 22.6269 28 24.0003 28C25.4936 28 26.8403 27.3867 27.8003 26.4C28.0136 27.12 28.1201 27.88 28.1201 28.6667Z" fill="#F3BB1C"/>
<path d="M27.96 19.1067C27 18.0133 25.5733 17.3333 24 17.3333C22.5067 17.3333 21.1467 17.9467 20.1733 18.9467C19.24 19.9067 18.6667 21.2267 18.6667 22.6667C18.6667 23.6667 18.9467 24.6133 19.44 25.4133C19.7067 25.8667 20.0533 26.28 20.4533 26.6267C21.3867 27.48 22.6267 28 24 28C25.9467 28 27.64 26.96 28.56 25.4133C28.84 24.96 29.0533 24.44 29.1733 23.9067C29.28 23.5067 29.3333 23.0933 29.3333 22.6667C29.3333 21.3067 28.8133 20.0533 27.96 19.1067ZM26 23.64H25V24.68C25 25.2267 24.5467 25.68 24 25.68C23.4533 25.68 23 25.2267 23 24.68V23.64H22C21.4533 23.64 21 23.1867 21 22.64C21 22.0933 21.4533 21.64 22 21.64H23V20.6933C23 20.1467 23.4533 19.6933 24 19.6933C24.5467 19.6933 25 20.1467 25 20.6933V21.64H26C26.5467 21.64 27 22.0933 27 22.64C27 23.1867 26.5467 23.64 26 23.64Z" fill="#DDAA19"/>
<path d="M16 16C19.6819 16 22.6667 13.0152 22.6667 9.33333C22.6667 5.65144 19.6819 2.66666 16 2.66666C12.3181 2.66666 9.33334 5.65144 9.33334 9.33333C9.33334 13.0152 12.3181 16 16 16Z" fill="#DDAA19"/>
</svg>
