<svg width="24" height="20" viewBox="0 0 24 20" fill="none" xmlns="http://www.w3.org/2000/svg">
<path d="M23.733 15.4266L20.4 13.6V11.2L22.4685 10.5366C22.9106 10.3154 22.9106 9.68462 22.4685 9.46337L18 7.59999V5.19999L19.0241 4.58874C19.3136 4.29924 19.2345 3.81099 18.8681 3.62799L12 0.399994L5.13187 3.62762C4.76549 3.81062 4.68637 4.29887 4.97587 4.58837L5.99999 5.19999V7.59999L1.53149 9.46337C1.08937 9.68462 1.08937 10.3154 1.53149 10.5366L3.59999 11.2V13.6L0.266993 15.4266C0.0637428 15.5624 -0.0217572 15.7877 0.00449284 16C0.0277428 16.1879 0.138368 16.3656 0.331493 16.4624L2.39999 17.2V19C2.39999 19.3315 2.66849 19.6 2.99999 19.6H4.19999C4.53149 19.6 4.79999 19.3315 4.79999 19V17.2H10.8V19C10.8 19.3315 11.0685 19.6 11.4 19.6H12.6C12.9315 19.6 13.2 19.3315 13.2 19V17.2H19.2V19C19.2 19.3315 19.4685 19.6 19.8 19.6H21C21.3315 19.6 21.6 19.3315 21.6 19V17.2L23.6681 16.4624C23.8616 16.3656 23.9719 16.1879 23.9951 16C24.0217 15.7874 23.9362 15.562 23.733 15.4266ZM8.39999 5.19999H15.6V7.59999H8.39999V5.19999ZM5.99999 13.6V11.2H18V13.6H5.99999Z" fill="#F3BB1C"/>
</svg>
